<?xml version="1.0" encoding="UTF-8"?>
<svg id="Capa_1" xmlns="http://www.w3.org/2000/svg" version="1.1" viewBox="0 0 64 64">
  <!-- Generator: Adobe Illustrator 30.4.0, SVG Export Plug-In . SVG Version: 2.1.4 Build 226)  -->
  <defs>
    <style>
      .st0 {
        fill: none;
        stroke-linejoin: round;
        stroke-width: 1.2px;
      }

      .st0, .st1 {
        stroke: #b8923a;
      }

      .st2 {
        fill: #3a311f;
      }

      .st1 {
        fill: #1a1040;
        stroke-width: 1.5px;
      }

      .st3 {
        fill: #b8923a;
      }

      .st4 {
        fill: #f5f0e8;
      }
    </style>
  </defs>
  <circle class="st1" cx="32" cy="32" r="30"/>
  <circle class="st3" cx="32" cy="32" r="7.8"/>
  <path class="st4" d="M42.5,32c-1.4.9-5.2,3.1-10.5,3.1s-9.1-2.2-10.5-3.1c1.2-.8,4.2-2.5,8.4-3,.7,0,1.4-.1,2.1-.1s1.4,0,2.1.1c4.2.5,7.2,2.2,8.4,3Z"/>
  <polygon class="st0" points="32 2 38.7 22.7 60.5 22.7 42.9 35.5 49.6 56.3 32 43.5 14.4 56.3 21.1 35.5 3.5 22.7 25.3 22.7 32 2"/>
  <circle class="st3" cx="32" cy="30.3" r="2.9"/>
  <path class="st2" d="M34.3,29.8c0,1.2-1,2.3-2.3,2.3s-2.3-1-2.3-2.3,0-.5.1-.8c.7,0,1.4-.1,2.1-.1s1.4,0,2.1.1c0,.2.1.5.1.8Z"/>
</svg>